<svg width="70" height="70" viewBox="0 0 70 70" fill="none" xmlns="http://www.w3.org/2000/svg">
<path d="M35 61.7646C49.7817 61.7646 61.7646 49.7817 61.7646 35C61.7646 20.2183 49.7817 8.23535 35 8.23535C20.2183 8.23535 8.23535 20.2183 8.23535 35C8.23535 49.7817 20.2183 61.7646 35 61.7646Z" fill="url(#paint0_radial_155_44)" fill-opacity="0.7" stroke="white" stroke-width="16.4706"/>
<circle cx="22.6042" cy="22.6042" r="22.6042" transform="matrix(1 0 0 -1 12.5417 57.4583)" fill="url(#paint1_linear_155_44)"/>
<circle cx="22.6042" cy="22.6042" r="16.4277" transform="matrix(1 0 0 -1 12.5417 57.4583)" stroke="white" stroke-opacity="0.3" stroke-width="12.3529"/>
<mask id="mask0_155_44" style="mask-type:alpha" maskUnits="userSpaceOnUse" x="23" y="23" width="25" height="25">
<rect width="24.2083" height="24.2083" transform="matrix(1 0 0 -1 23.0417 47.25)" fill="white"/>
</mask>
<g mask="url(#mask0_155_44)">
<path d="M35.1709 43.3162C34.8011 43.3162 34.486 43.4466 34.2258 43.7076C33.9649 43.9678 33.8344 44.2828 33.8344 44.6527V45.4092C33.8344 45.779 33.9649 46.0944 34.2258 46.3553C34.486 46.6156 34.8011 46.7457 35.1709 46.7457C35.5408 46.7457 35.8562 46.6156 36.1171 46.3553C36.3773 46.0944 36.5074 45.779 36.5074 45.4092V44.6527C36.5074 44.2828 36.3773 43.9678 36.1171 43.7076C35.8562 43.4466 35.5408 43.3162 35.1709 43.3162ZM35.1709 23.546C34.8011 23.546 34.486 23.6762 34.2258 23.9364C33.9649 24.1973 33.8344 24.5127 33.8344 24.8825V25.6391C33.8344 26.0089 33.9649 26.324 34.2258 26.5842C34.486 26.8451 34.8011 26.9756 35.1709 26.9756C35.5408 26.9756 35.8562 26.8451 36.1171 26.5842C36.3773 26.324 36.5074 26.0089 36.5074 25.6391V24.8825C36.5074 24.5127 36.3773 24.1973 36.1171 23.9364C35.8562 23.6762 35.5408 23.546 35.1709 23.546ZM44.6525 33.8346C44.2827 33.8346 43.9676 33.965 43.7074 34.226C43.4465 34.4862 43.316 34.8012 43.316 35.1711C43.316 35.5409 43.4465 35.8563 43.7074 36.1172C43.9676 36.3775 44.2827 36.5076 44.6525 36.5076H45.409C45.7789 36.5076 46.0943 36.3775 46.3552 36.1172C46.6154 35.8563 46.7455 35.5409 46.7455 35.1711C46.7455 34.8012 46.6154 34.4862 46.3552 34.226C46.0943 33.965 45.7789 33.8346 45.409 33.8346H44.6525ZM24.8824 33.8346C24.5126 33.8346 24.1975 33.965 23.9373 34.226C23.6764 34.4862 23.5459 34.8012 23.5459 35.1711C23.5459 35.5409 23.6764 35.8563 23.9373 36.1172C24.1975 36.3775 24.5126 36.5076 24.8824 36.5076H25.6389C26.0088 36.5076 26.3241 36.3775 26.5851 36.1172C26.8453 35.8563 26.9754 35.5409 26.9754 35.1711C26.9754 34.8012 26.8453 34.4862 26.5851 34.226C26.3241 33.965 26.0088 33.8346 25.6389 33.8346H24.8824ZM41.2987 41.3493C41.0297 41.6182 40.8952 41.9377 40.8952 42.3075C40.8952 42.6774 41.0297 42.9968 41.2987 43.2657L41.4752 43.4423C41.7274 43.6944 42.0384 43.8205 42.4082 43.8205C42.7781 43.8205 43.0975 43.686 43.3665 43.4171C43.6355 43.1481 43.7699 42.8287 43.7699 42.4588C43.7699 42.089 43.6355 41.7695 43.3665 41.5006L43.19 41.324C42.9378 41.0719 42.6268 40.9458 42.2569 40.9458C41.8871 40.9458 41.5677 41.0803 41.2987 41.3493ZM26.925 26.8747C26.656 27.1437 26.5215 27.4631 26.5215 27.8329C26.5215 28.2028 26.656 28.5222 26.925 28.7912L27.1015 28.9677C27.3537 29.2199 27.6647 29.346 28.0345 29.346C28.4044 29.346 28.7238 29.2115 28.9928 28.9425C29.2618 28.6735 29.3962 28.3541 29.3962 27.9842C29.3962 27.6144 29.2618 27.295 28.9928 27.026L28.8163 26.8495C28.5641 26.5973 28.2531 26.4712 27.8832 26.4712C27.5134 26.4712 27.194 26.6057 26.925 26.8747ZM41.45 26.8747L41.2735 27.0512C41.0213 27.3034 40.8952 27.6144 40.8952 27.9842C40.8952 28.3541 41.0297 28.6735 41.2987 28.9425C41.5677 29.2115 41.8871 29.346 42.2569 29.346C42.6268 29.346 42.9462 29.2115 43.2152 28.9425L43.3917 28.766C43.6439 28.5138 43.7699 28.2028 43.7699 27.8329C43.7699 27.4631 43.6355 27.1437 43.3665 26.8747C43.0975 26.6057 42.7781 26.4712 42.4082 26.4712C42.0384 26.4712 41.719 26.6057 41.45 26.8747ZM27.0258 41.3493L26.8998 41.4753C26.6476 41.7275 26.5215 42.0385 26.5215 42.4084C26.5215 42.7782 26.656 43.0976 26.925 43.3666C27.194 43.6356 27.5134 43.7701 27.8832 43.7701C28.2531 43.7701 28.5725 43.6356 28.8415 43.3666L28.9676 43.2405C29.2197 42.9884 29.3458 42.6774 29.3458 42.3075C29.3458 41.9377 29.2113 41.6182 28.9423 41.3493C28.6734 41.0803 28.3539 40.9458 27.9841 40.9458C27.6142 40.9458 27.2948 41.0803 27.0258 41.3493ZM35.1457 28.3373C33.2629 28.3373 31.6574 29.0013 30.3293 30.3294C29.0012 31.6575 28.3371 33.263 28.3371 35.1459C28.3371 37.0287 29.0012 38.6342 30.3293 39.9623C31.6574 41.2904 33.2629 41.9545 35.1457 41.9545C37.0286 41.9545 38.6341 41.2904 39.9622 39.9623C41.2903 38.6342 41.9543 37.0287 41.9543 35.1459C41.9543 33.263 41.2903 31.6575 39.9622 30.3294C38.6341 29.0013 37.0286 28.3373 35.1457 28.3373Z" fill="white"/>
</g>
<defs>
<radialGradient id="paint0_radial_155_44" cx="0" cy="0" r="1" gradientUnits="userSpaceOnUse" gradientTransform="translate(35 35) rotate(-90) scale(35)">
<stop stop-color="white"/>
<stop offset="1" stop-color="white"/>
</radialGradient>
<linearGradient id="paint1_linear_155_44" x1="29.109" y1="45.2083" x2="14.8508" y2="4.99819" gradientUnits="userSpaceOnUse">
<stop stop-color="#F3B14E"/>
<stop offset="1" stop-color="#FFCE51"/>
</linearGradient>
</defs>
</svg>
