<svg width="36" height="36" viewBox="0 0 36 36" fill="none" xmlns="http://www.w3.org/2000/svg">
<path d="M31.875 18H13.3425M6.801 18H4.125M6.801 18C6.801 17.1327 7.14552 16.301 7.75876 15.6878C8.372 15.0745 9.20374 14.73 10.071 14.73C10.9383 14.73 11.77 15.0745 12.3832 15.6878C12.9965 16.301 13.341 17.1327 13.341 18C13.341 18.8673 12.9965 19.699 12.3832 20.3122C11.77 20.9255 10.9383 21.27 10.071 21.27C9.20374 21.27 8.372 20.9255 7.75876 20.3122C7.14552 19.699 6.801 18.8673 6.801 18ZM31.875 27.9105H23.253M23.253 27.9105C23.253 28.778 22.9077 29.6106 22.2943 30.224C21.6809 30.8374 20.849 31.182 19.9815 31.182C19.1142 31.182 18.2825 30.836 17.6693 30.2227C17.056 29.6095 16.7115 28.7778 16.7115 27.9105M23.253 27.9105C23.253 27.043 22.9077 26.2119 22.2943 25.5985C21.6809 24.9851 20.849 24.6405 19.9815 24.6405C19.1142 24.6405 18.2825 24.985 17.6693 25.5983C17.056 26.2115 16.7115 27.0432 16.7115 27.9105M16.7115 27.9105H4.125M31.875 8.0895H27.2175M20.676 8.0895H4.125M20.676 8.0895C20.676 7.22224 21.0205 6.3905 21.6338 5.77726C22.247 5.16402 23.0787 4.8195 23.946 4.8195C24.3754 4.8195 24.8006 4.90408 25.1974 5.06841C25.5941 5.23275 25.9546 5.47361 26.2582 5.77726C26.5619 6.08091 26.8028 6.44139 26.9671 6.83813C27.1314 7.23486 27.216 7.66008 27.216 8.0895C27.216 8.51892 27.1314 8.94414 26.9671 9.34088C26.8028 9.73761 26.5619 10.0981 26.2582 10.4017C25.9546 10.7054 25.5941 10.9463 25.1974 11.1106C24.8006 11.2749 24.3754 11.3595 23.946 11.3595C23.0787 11.3595 22.247 11.015 21.6338 10.4017C21.0205 9.78849 20.676 8.95676 20.676 8.0895Z" stroke="black" stroke-width="1.125" stroke-miterlimit="10" stroke-linecap="round"/>
</svg>
